
<svg xmlns="http://www.w3.org/2000/svg" width="24" height="24" viewBox="0 0 24 24" fill="none" stroke="currentColor" stroke-width="1" stroke-linecap="round" stroke-linejoin="round" color= "orange" class="feather feather-aperture align-middle mr-2">
<line class="st0" x1="0.0253" y1="0.0876" x2="10.217" y2="0.0876"/>
<line class="st0" x1="10.234" y1="0.0876" x2="12.0836" y2="3.2902"/>
<line class="st0" x1="12.0836" y1="3.2902" x2="13.7834" y2="0.0255"/>
<line class="st0" x1="13.7834" y1="0.0255" x2="23.9745" y2="0.0255"/>
<line class="st0" x1="0.0255" y1="11.386" x2="10.217" y2="11.386"/>
<line class="st0" x1="13.7834" y1="11.386" x2="23.9745" y2="11.386"/>
<line class="st0" x1="12.0846" y1="13.6122" x2="13.7834" y2="11.3992"/>
<line class="st0" x1="10.217" y1="11.386" x2="12.0846" y2="13.6122"/>
<line class="st0" x1="0.0255" y1="0.0876" x2="0.0255" y2="11.386"/>
<line class="st0" x1="23.9745" y1="0.0255" x2="23.9745" y2="11.386"/>
<g>
	<path d="M5.1526,3.1083H2.9172V2.3011h5.4415V3.1083h-2.2461v6.5427h-.9595V3.1083z"/>
</g>
<g>
	<path d="M16.907,2.3883c.4581-.07643,1.0578-.1417,1.8211-.1417c.9381,0,1.625,.2181,2.0611,.6104c.4036,.3490,.6436,.8831,.6436,1.5373
		c0,0.665-.1962,1.1888-.5671,1.5704c-0.5014,.5345-1.3192,.8071-2.2461,.8071c-.2833,0-.5452-.0107-.7633-.0652v2.9442H16.907V2.3883z
		 M17.8553,5.9322c.2074,.05452,.7852,.07643,.7852,.07643c1.145,0,1.8431-.5559,1.8431-1.5704c0-0.9707-0.6869-1.4395-1.734-1.4395
		c-0.4143,0-0.7307,0.03261-.8943,0.07643V5.9322z"/>
</g>
</svg>



